<svg t="1633835222156" class="icon" viewBox="0 0 1024 1024" version="1.1" xmlns="http://www.w3.org/2000/svg" p-id="2551" width="200" height="200"><path d="M938.325333 94.848L718.336 332.373333a7.082667 7.082667 0 0 0-1.749333 6.144 43.008 43.008 0 0 1-73.130667 38.4l-175.36 174.933334 17.322667 231.381333 196.864 196.650667z" fill="#007FFF" p-id="2552"></path><path d="M935.722667 98.090667l-218.837334 236.245333-0.853333 3.712a42.410667 42.410667 0 0 1-72.106667 39.338667l-175.829333 174.933333 17.322667 231.381333 441.088-665.6 9.429333-19.84z" fill="#0069FF" p-id="2553"></path><path d="M929.066667 85.376l-237.781334 219.733333a7.04 7.04 0 0 1-6.229333 1.792 42.965333 42.965333 0 0 0-38.4 73.045334l-175.36 175.189333-231.552-17.450667-196.949333-196.565333z m0 0" fill="#00EED4" p-id="2554"></path><path d="M926.208 88.576l-236.544 218.581333-3.669333 0.853334a42.368 42.368 0 0 0-39.338667 72.021333l-175.530667 174.933333-231.552-17.450666L906.197333 97.578667l19.882667-9.386667z" fill="#00D3B4" p-id="2555"></path></svg>